<?xml version="1.0" encoding="utf-8"?>
<!-- Generator: Adobe Illustrator 24.1.1, SVG Export Plug-In . SVG Version: 6.00 Build 0)  -->
<svg version="1.1" xmlns="http://www.w3.org/2000/svg" xmlns:xlink="http://www.w3.org/1999/xlink" x="0px" y="0px"
	 viewBox="0 0 500 500" style="enable-background:new 0 0 500 500;" xml:space="preserve">
<style type="text/css">
	.st0{fill:#3D3D3D;}
	.st1{display:none;}
	.st2{display:inline;fill:none;stroke:#000000;stroke-width:3;stroke-linecap:square;stroke-miterlimit:10;}
	.st3{display:inline;fill:none;stroke:#000000;stroke-linecap:square;stroke-miterlimit:10;}
	.st4{display:inline;}
	.st5{display:inline;fill:none;stroke:#3D3D3D;stroke-width:8;stroke-miterlimit:10;}
	.st6{opacity:0.87;}
</style>
<g id="Layer_1">
</g>
<g id="Layer_2" class="st1">
	<g class="st4">
		<path class="st0" d="M448.08,101.6v39.22h-96.1V101.6H28.39V398.4h23.53v-22.25h276.53v22.25h23.53v-22.25h96.1v22.25h23.53V101.6
			H448.08z M328.45,125.14v15.69H51.92v-15.69H328.45z M51.92,148.67h276.53v15.69H51.92V148.67z M328.45,187.9v141.18H51.92V187.9
			H328.45z M51.92,352.61v-15.69h276.53v15.69H51.92z M351.98,352.61v-15.69h96.1v15.69H351.98z M448.08,329.07h-96.1v-15.66h96.1
			V329.07z M448.08,289.88h-96.1v-41.19h96.1V289.88z M448.08,225.16h-96.1V187.9h96.1V225.16z M351.98,164.36v-15.69h96.1v15.69
			H351.98z"/>
		<g>
			<path class="st0" d="M418.02,147.44c-22.29,0-39.1-8.99-39.1-20.91s16.81-20.91,39.1-20.91s39.1,8.99,39.1,20.91
				S440.31,147.44,418.02,147.44z M418.02,113.61c-17.8,0-31.1,6.82-31.1,12.91s13.3,12.91,31.1,12.91s31.1-6.82,31.1-12.91
				S435.81,113.61,418.02,113.61z"/>
		</g>
		<g>
			<path class="st0" d="M82.02,335.33c-22.29,0-39.1-8.99-39.1-20.91s16.81-20.91,39.1-20.91s39.1,8.99,39.1,20.91
				S104.31,335.33,82.02,335.33z M82.02,301.5c-17.8,0-31.1,6.82-31.1,12.91s13.3,12.91,31.1,12.91s31.1-6.82,31.1-12.91
				S99.81,301.5,82.02,301.5z"/>
		</g>
	</g>
	<ellipse class="st5" cx="418.02" cy="126.52" rx="35.1" ry="16.91"/>
	<ellipse class="st5" cx="82.02" cy="314.41" rx="35.1" ry="16.91"/>
</g>
<g id="Layer_2_copy" class="st6">
	<path d="M448.08,101.6v11.25c-7.06-4.49-17.72-7.25-30.06-7.25c-22.29,0-39.1,8.99-39.1,20.91c0,5.64,3.76,10.62,10.08,14.31
		h-37.02V101.6H28.39V398.4h23.53v-22.25h276.53v22.25h23.53v-22.25h96.1v22.25h23.53V101.6H448.08z M51.92,328.06
		c0.55,0.35,1.12,0.69,1.71,1.02h-1.71V328.06z M51.92,317.38v-5.93c3.4-5.15,15.16-9.95,30.1-9.95c17.8,0,31.1,6.82,31.1,12.91
		s-13.3,12.91-31.1,12.91C67.08,327.33,55.32,322.53,51.92,317.38z M328.45,352.61H51.92v-15.69h276.53V352.61z M328.45,329.07
		H110.4c6.7-3.72,10.71-8.84,10.71-14.66c0-11.92-16.81-20.91-39.1-20.91c-12.37,0-23.04,2.77-30.1,7.27V187.9h276.53V329.07z
		 M328.45,164.36H51.92v-15.69h276.53V164.36z M328.45,140.83H51.92v-15.69h276.53V140.83z M418.02,113.61
		c14.89,0,26.62,4.77,30.06,9.9v6.03c-3.44,5.13-15.17,9.9-30.06,9.9c-17.8,0-31.1-6.82-31.1-12.91S400.22,113.61,418.02,113.61z
		 M448.08,352.61h-96.1v-15.69h96.1V352.61z M448.08,329.07h-96.1v-15.66h96.1V329.07z M448.08,289.88h-96.1v-41.19h96.1V289.88z
		 M448.08,225.16h-96.1V187.9h96.1V225.16z M448.08,164.36h-96.1v-15.69h96.1V164.36z M447.03,140.83c0.36-0.21,0.71-0.43,1.05-0.64
		v0.64H447.03z"/>
</g>
</svg>
